<?xml version="1.0" standalone="no"?><!DOCTYPE svg PUBLIC "-//W3C//DTD SVG 1.1//EN" "http://www.w3.org/Graphics/SVG/1.1/DTD/svg11.dtd"><svg t="1573552741722" class="icon" viewBox="0 0 1024 1024" version="1.1" xmlns="http://www.w3.org/2000/svg" p-id="5925" xmlns:xlink="http://www.w3.org/1999/xlink" width="200" height="200"><defs><style type="text/css"></style></defs><path d="M770.3552 116.9408c12.5952 0 24.064 8.3968 27.4432 21.0944l38.4 143.1552h23.1424c28.16 0 50.9952 22.8352 50.9952 50.9952V856.064c0 28.16-22.8352 50.9952-50.9952 50.9952H164.7616c-28.16 0-50.9952-22.8352-50.9952-50.9952V332.1856c0-25.4976 19.0464-45.6704 43.4176-49.4592l157.2864-157.2864c4.1984-4.1984 9.6256-6.2464 15.1552-6.2464 5.4272 0 10.8544 2.048 15.0528 6.2464 0.2048 0.2048 0.1024 0.512 0.2048 0.7168 0.2048 0.2048 0.6144 0.1024 0.7168 0.3072l81.5104 81.5104L762.88 117.9648c2.4576-0.6144 5.0176-1.024 7.4752-1.024z m-599.6544 733.184h682.7008v-512H170.7008v512z m202.6496-568.832h403.968l-27.0336-100.9664-376.9344 100.9664z m-130.3552-24.064l136.6016-36.5568-49.9712-49.9712-86.6304 86.528z m328.2944 197.9392c-7.5776 0-14.7456 2.9696-20.1728 8.2944L512 502.784l-39.2192-39.2192c-5.3248-5.3248-12.5952-8.2944-20.1728-8.2944-7.2704 0-14.5408 2.7648-20.0704 8.2944a28.368896 28.368896 0 0 0 0 40.2432l30.1056 30.208h-21.8112c-15.6672 0-28.4672 12.6976-28.4672 28.4672 0 15.6672 12.6976 28.4672 28.4672 28.4672h42.7008v28.4672h-42.7008c-15.6672 0-28.4672 12.6976-28.4672 28.4672 0 15.6672 12.6976 28.4672 28.4672 28.4672h42.7008v28.4672c0 15.6672 12.6976 28.4672 28.4672 28.4672 15.6672 0 28.4672-12.8 28.4672-28.4672v-28.4672h42.7008c15.6672 0 28.4672-12.8 28.4672-28.4672 0-15.7696-12.6976-28.4672-28.4672-28.4672h-42.7008V590.848h42.7008c15.6672 0 28.4672-12.8 28.4672-28.4672 0-15.7696-12.6976-28.4672-28.4672-28.4672h-21.8112l30.208-30.208c11.0592-11.1616 11.0592-29.0816 0-40.2432-5.4272-5.3248-12.6976-8.2944-20.2752-8.2944" fill="#323233" p-id="5926"></path></svg>