<svg height="512pt" viewBox="-64 0 512 512" width="512pt" xmlns="http://www.w3.org/2000/svg"><path d="m329.042969 386.609375c-31.328125 32.921875-74.339844 54.628906-122.3125 58.402344v66.988281h151.996093c8.285157 0 15-6.714844 15-15v-56.234375c0-26.832031-19.261718-49.242187-44.683593-54.15625zm0 0"/><path d="m54.421875 386.609375c-25.425781 4.914063-44.6875 27.324219-44.6875 54.15625v56.234375c0 8.285156 6.714844 15 15 15h151.996094v-66.988281c-47.972657-3.773438-90.980469-25.480469-122.308594-58.402344zm0 0"/><path d="m351.332031 105.425781v-10.09375c0-52.566406-42.765625-95.332031-95.332031-95.332031h-128.535156c-27.753906 0-50.179688 7.351562-66.648438 21.847656-19.03125 16.757813-28.683594 41.839844-28.683594 74.550782v9.027343c-19.695312 17.476563-32.132812 42.964844-32.132812 71.308594 0 8.28125 6.714844 15 15 15h353.464844c8.285156 0 15-6.71875 15-15 0-28.34375-12.4375-53.832031-32.132813-71.308594zm0 0"/><path d="m351.332031 256v-34.265625h-319.199219v34.265625c0 88.003906 71.597657 159.601562 159.597657 159.601562 88.003906 0 159.601562-71.597656 159.601562-159.601562zm-122.003906-11.675781c2.789063-2.789063 6.660156-4.390625 10.601563-4.390625 3.949218 0 7.820312 1.601562 10.609374 4.390625 2.789063 2.792969 4.390626 6.660156 4.390626 10.609375 0 3.953125-1.601563 7.820312-4.390626 10.613281-2.789062 2.789063-6.660156 4.386719-10.609374 4.386719-3.941407 0-7.8125-1.597656-10.601563-4.386719-2.789063-2.792969-4.398437-6.660156-4.398437-10.613281 0-3.949219 1.609374-7.816406 4.398437-10.609375zm-96.398437 0c2.789062-2.789063 6.660156-4.390625 10.609374-4.390625 3.9375 0 7.808594 1.601562 10.601563 4.390625 2.789063 2.792969 4.386719 6.660156 4.386719 10.609375 0 3.953125-1.597656 7.820312-4.386719 10.613281-2.792969 2.789063-6.660156 4.386719-10.601563 4.386719-3.949218 0-7.820312-1.597656-10.609374-4.386719-2.800782-2.792969-4.402344-6.660156-4.402344-10.613281 0-3.949219 1.601562-7.808594 4.402344-10.609375zm127.449218 82.390625c-14.136718 24.4375-40.441406 39.617187-68.648437 39.617187s-54.511719-15.179687-68.644531-39.613281c-4.152344-7.167969-1.699219-16.347656 5.46875-20.492188 7.171874-4.148437 16.347656-1.699218 20.496093 5.46875 8.792969 15.199219 25.144531 24.640626 42.679688 24.640626 17.535156 0 33.890625-9.445313 42.683593-24.644532 4.148438-7.171875 13.324219-9.621094 20.496094-5.472656 7.167969 4.148438 9.621094 13.328125 5.46875 20.496094zm0 0"/></svg>