<?xml version="1.0" standalone="no"?><!DOCTYPE svg PUBLIC "-//W3C//DTD SVG 1.1//EN" "http://www.w3.org/Graphics/SVG/1.1/DTD/svg11.dtd"><svg t="1573551104504" class="icon" viewBox="0 0 1024 1024" version="1.1" xmlns="http://www.w3.org/2000/svg" p-id="4647" xmlns:xlink="http://www.w3.org/1999/xlink" width="200" height="200"><defs><style type="text/css"></style></defs><path d="M332.313646 0c-48.985949 0-88.909996 39.805081-88.909996 88.811497l0 846.353981c0 48.985949 39.924047 88.834523 88.909996 88.834523l380.974676 0c48.900242 0 88.802542-39.848574 88.802542-88.834523L802.090864 88.811497c0-49.006416-39.901021-88.811497-88.802542-88.811497L332.313646 0zM748.086586 845.283284 297.45142 845.283284 297.45142 178.716716l450.633887 0L748.085307 845.283284zM476.897284 930.779077c0-25.316784 20.565809-45.926086 45.818632-45.926086 25.392257 0 46.065519 20.609302 46.065519 45.926086 0 25.40249-20.673263 46.055286-46.065519 46.055286C497.461814 976.834363 476.897284 956.181567 476.897284 930.779077zM566.91891 89.9679c5.799924 0 10.485659 4.665268 10.485659 10.443445 0 5.650257-4.685735 10.315524-10.485659 10.315524l-88.246087 0c-5.714217 0-10.443445-4.663988-10.443445-10.315524 0-5.778178 4.729228-10.443445 10.443445-10.443445L566.91891 89.9679z" p-id="4648"></path></svg>