<svg height="512pt" viewBox="-1 0 512 512.00136" width="512pt" xmlns="http://www.w3.org/2000/svg"><path d="m501.25 153.253906-29.125-10.601562c.140625-2.976563.140625-5.921875 0-8.902344l29.128906-10.597656c3.515625-1.28125 6.320313-3.855469 7.902344-7.242188 1.582031-3.394531 1.746094-7.199218.46875-10.714844l-10.203125-28.03125c-1.28125-3.515624-3.851563-6.324218-7.246094-7.90625-3.390625-1.582031-7.195312-1.75-10.710937-.46875l-29.121094 10.597657c-1.804688-2.351563-3.714844-4.628907-5.726562-6.8125l15.5-26.84375c3.859374-6.691407 1.558593-15.277344-5.128907-19.136719l-25.835937-14.917969c-3.242188-1.871093-7.019532-2.367187-10.632813-1.398437s-6.632812 3.285156-8.503906 6.527344l-15.488281 26.828124c-2.894532-.644531-5.824219-1.160156-8.773438-1.535156l-5.382812-30.519531c-1.339844-7.609375-8.617188-12.703125-16.230469-11.363281l-29.378906 5.179687c-3.683594.648438-6.898438 2.695313-9.042969 5.761719-2.148438 3.0625-2.96875 6.78125-2.320312 10.464844l5.378906 30.511718c-2.632813 1.367188-5.207032 2.855469-7.710938 4.460938l-23.738281-19.921875c-5.914063-4.964844-14.769531-4.1875-19.734375 1.726563l-19.175781 22.855468c-2.40625 2.867188-3.550781 6.496094-3.226563 10.226563.328125 3.726562 2.085938 7.105469 4.953125 9.507812l23.726563 19.914063c-1.144532 2.742187-2.160156 5.539062-3.046875 8.375h-30.976563c-7.726562 0-14.007812 6.285156-14.007812 14.007812v29.832032c0 7.726562 6.28125 14.011718 14.007812 14.011718h30.976563c.886719 2.835938 1.902343 5.632813 3.046875 8.375l-23.726563 19.910156c-2.867187 2.40625-4.625 5.785157-4.953125 9.511719-.324218 3.726563.820313 7.359375 3.226563 10.226563l19.175781 22.855468c4.964844 5.914063 13.820312 6.6875 19.738281 1.722657l23.734375-19.917969c2.503906 1.605469 5.078125 3.09375 7.710938 4.460938l-5.378906 30.507812c-.652344 3.683594.171874 7.402344 2.320312 10.46875s5.359375 5.109375 9.042969 5.761719c32.011719 5.644531 30.140625 5.394531 31.84375 5.394531 2.847656 0 5.621093-.867188 8.003906-2.539062 3.066406-2.144532 5.109375-5.355469 5.761719-9.042969l5.382812-30.519531c2.949219-.375 5.878906-.890626 8.773438-1.535157l15.488281 26.828125c3.859375 6.6875 12.441406 8.992188 19.136719 5.128906l25.835937-14.917968c6.691407-3.863282 8.988281-12.445313 5.128907-19.136719l-15.5-26.839844c2.011718-2.1875 3.921874-4.460937 5.726562-6.816406l29.121094 10.597656c3.519531 1.28125 7.320312 1.113281 10.710937-.46875 3.394531-1.582031 5.964844-4.386719 7.246094-7.90625l10.203125-28.03125c1.277344-3.515625 1.113281-7.320312-.46875-10.710937s-4.390625-5.964844-7.90625-7.242188zm-15.648438 39.792969-33.46875-12.183594c-3.265624-1.1875-6.917968.003907-8.855468 2.886719-3.261719 4.859375-7.0625 9.386719-11.296875 13.449219-2.503907 2.40625-3.046875 6.214843-1.308594 9.222656l17.8125 30.855469-23.9375 13.820312-17.800781-30.835937c-1.738282-3.007813-5.308594-4.441407-8.640625-3.476563-5.601563 1.621094-11.421875 2.640625-17.292969 3.027344-3.472656.230469-6.335938 2.800781-6.941406 6.226562l-6.1875 35.085938-27.222656-4.800781c9.417968-53.410157 10.09375-34.882813-13.398438-52.078125-2.804688-2.054688-6.648438-1.925782-9.316406.308594l-27.289063 22.902343-17.769531-21.175781 27.28125-22.890625c2.664062-2.238281 3.457031-6 1.921875-9.121094-2.589844-5.261719-4.609375-10.808593-6.003906-16.496093-.828125-3.375-3.859375-5.75-7.335938-5.75h-35.609375v-27.644532h35.609375c3.476563 0 6.507813-2.375 7.335938-5.75 1.394531-5.6875 3.414062-11.238281 6.003906-16.496094 1.535156-3.121093.742187-6.882812-1.921875-9.121093l-27.28125-22.890625 17.769531-21.175782 27.289063 22.902344c2.667968 2.234375 6.511718 2.363282 9.316406.308594 4.738281-3.46875 9.851562-6.425781 15.199219-8.792969 3.179687-1.402343 4.988281-4.796875 4.382812-8.214843l-6.183593-35.070313 27.222656-4.800781 6.1875 35.089844c.605468 3.425781 3.46875 5.996093 6.941406 6.226562 5.871094.386719 11.6875 1.40625 17.292969 3.027344 3.335937.964844 6.902343-.46875 8.640625-3.480469l17.800781-30.835937 23.9375 13.820312-17.8125 30.855469c-1.738281 3.011719-1.195313 6.816406 1.308594 9.222656 4.234375 4.066406 8.035156 8.589844 11.296875 13.449219 1.9375 2.882812 5.585937 4.074218 8.855468 2.886718l33.46875-12.183593 9.453126 25.976562-33.472657 12.183594c-3.261719 1.1875-5.296875 4.445313-4.929687 7.898437.628906 5.867188.628906 11.699219 0 17.574219-.367188 3.453125 1.664062 6.710938 4.929687 7.898438l33.472657 12.183593zm0 0"/><path d="m426.601562 102.957031c-3.714843 1.898438-5.183593 6.449219-3.285156 10.164063 18.527344 36.210937-7.761718 80.265625-49.097656 80.265625-30.660156 0-55.246094-25.011719-55.246094-55.121094 0-45.273437 51.210938-70.625 87.132813-45.066406 3.394531 2.417969 8.113281 1.621093 10.53125-1.777344s1.621093-8.113281-1.777344-10.53125c-46.140625-32.824219-110.992187.152344-110.992187 57.375 0 38.378906 31.339843 70.222656 70.347656 70.222656 52.5625 0 86.1875-56.039062 62.546875-102.246093-1.898438-3.714844-6.445313-5.183594-10.160157-3.285157zm0 0"/><path d="m342.683594 106.730469c-28.132813 28.132812-7.824219 75.976562 31.472656 75.976562 24.59375 0 44.503906-19.902343 44.503906-44.503906 0-39.257813-47.820312-59.632813-75.976562-31.472656zm52.261718 52.261719c-18.34375 18.339843-50.191406 5.507812-50.191406-20.789063 0-16.25 13.148438-29.402344 29.398438-29.402344 25.9375 0 39.390625 31.589844 20.792968 50.191407zm0 0"/><path d="m155.949219 301.664062c3.363281.902344 6.875.4375 9.890625-1.304687l21.9375-12.664063c6.226562-3.59375 8.378906-11.550781 4.765625-17.804687l-12.738281-22.066406c1.335937-1.484375 2.621093-3.011719 3.847656-4.582031l23.945312 8.714843c6.753906 2.457031 14.246094-1.039062 16.703125-7.792969l8.664063-23.800781c2.457031-6.753906-1.035156-14.246093-7.789063-16.707031l-23.945312-8.714844c.074219-1.980468.074219-3.996094 0-5.984375l23.945312-8.710937c6.753907-2.460938 10.25-9.953125 7.789063-16.707032l-8.664063-23.800781c-2.457031-6.753906-9.945312-10.253906-16.707031-7.792969l-23.941406 8.714844c-1.226563-1.570312-2.511719-3.101562-3.847656-4.582031l12.738281-22.066406c1.742187-3.015625 2.203125-6.527344 1.304687-9.890625-.902344-3.363282-3.058594-6.175782-6.074218-7.917969l-21.933594-12.664063c-3.015625-1.738281-6.53125-2.199218-9.890625-1.300781-3.363281.902344-6.175781 3.058594-7.914063 6.074219l-12.734375 22.054688c-1.953125-.414063-3.921875-.757813-5.898437-1.03125l-4.425782-25.089844c-1.246093-7.078125-8.023437-11.820313-15.101562-10.574219l-24.941406 4.398437c-7.078125 1.246094-11.820313 8.019532-10.574219 15.101563l4.421875 25.082031c-1.761719.9375-3.492188 1.9375-5.183594 3l-19.515625-16.375c-2.667969-2.238281-6.046875-3.308594-9.515625-3-3.464844.300782-6.609375 1.9375-8.847656 4.605469l-16.28125 19.402344c-4.621094 5.503906-3.898438 13.742187 1.609375 18.363281l19.503906 16.367188c-.75 1.851562-1.433593 3.734374-2.046875 5.636718h-25.46875c-7.1875 0-13.035156 5.847656-13.035156 13.03125v25.328125c0 7.1875 5.847656 13.035157 13.035156 13.035157h25.464844c.617188 1.902343 1.300781 3.78125 2.050781 5.632812l-19.507812 16.371094c-5.503907 4.617187-6.226563 12.855468-1.605469 18.363281l16.277344 19.402344c2.242187 2.667969 5.382812 4.300781 8.851562 4.605469 3.464844.304687 6.847656-.761719 9.515625-3l19.515625-16.375c1.691406 1.0625 3.421875 2.0625 5.183594 3l-4.421875 25.085937c-1.246094 7.078125 3.496094 13.847656 10.574219 15.097656 27.113281 4.78125 25.640625 4.597657 27.210937 4.597657 6.203125 0 11.71875-4.457032 12.832031-10.773438l4.421876-25.089844c1.980468-.273437 3.949218-.617187 5.902343-1.03125l12.734375 22.054688c1.738282 3.015625 4.550782 5.171875 7.914063 6.074218zm-19.054688-44.089843c-4.675781 1.351562-9.535156 2.203125-14.441406 2.527343-3.46875.230469-6.335937 2.800782-6.9375 6.226563l-5.058594 28.667969-20.863281-3.679688 5.050781-28.652344c.605469-3.421874-1.203125-6.8125-4.378906-8.21875-4.46875-1.976562-8.738281-4.445312-12.695313-7.339843-2.804687-2.054688-6.648437-1.929688-9.3125.308593l-22.300781 18.707032-13.617187-16.230469 22.289062-18.703125c2.664063-2.234375 3.457032-6 1.921875-9.117188-2.164062-4.390624-3.847656-9.023437-5.015625-13.773437-.828125-3.378906-3.859375-5.753906-7.335937-5.753906h-29.09375v-21.1875h29.09375c3.476562 0 6.507812-2.375 7.335937-5.753907 1.164063-4.75 2.851563-9.382812 5.015625-13.773437 1.53125-3.117187.738281-6.882813-1.921875-9.117187l-22.289062-18.703126 13.617187-16.230468 22.300781 18.707031c2.664063 2.238281 6.507813 2.363281 9.3125.308594 3.957032-2.894531 8.226563-5.363281 12.695313-7.339844 3.175781-1.40625 4.984375-4.796875 4.378906-8.21875l-5.050781-28.648437 20.867188-3.679688 5.054687 28.667969c.605469 3.425781 3.46875 5.996093 6.941406 6.222656 4.902344.324219 9.761719 1.175781 14.441407 2.53125 3.335937.964844 6.902343-.472656 8.636718-3.480469l14.546875-25.191406 18.347657 10.59375-14.554688 25.210938c-1.738281 3.007812-1.195312 6.816406 1.308594 9.222656 3.535156 3.394531 6.710937 7.171875 9.4375 11.230468 1.933594 2.882813 5.585937 4.074219 8.851562 2.886719l27.34375-9.953125 7.246094 19.910156-27.347656 9.953126c-3.261719 1.1875-5.292969 4.445312-4.925782 7.898437.507813 4.78125.535157 9.628906 0 14.683594-.367187 3.449219 1.664063 6.707031 4.925782 7.894531l27.347656 9.957031-7.246094 19.910157-27.34375-9.957032c-3.261718-1.183594-6.917968.003906-8.851562 2.886719-2.726563 4.058594-5.902344 7.835937-9.4375 11.234375-2.503906 2.40625-3.042969 6.210938-1.308594 9.222656l14.554688 25.207032-18.347657 10.597656-14.546875-25.195313c-1.738281-3.007812-5.300781-4.441406-8.640625-3.476562zm0 0"/><path d="m167.640625 158.441406c-2.300781-3.480468-6.988281-4.433594-10.464844-2.132812-3.480469 2.300781-4.433593 6.988281-2.132812 10.464844 19.847656 30.007812-1.488281 70.886718-38.164063 70.886718-25.261718 0-45.710937-20.441406-45.710937-45.710937 0-33.039063 34.109375-55.265625 64.375-41.742188 3.804687 1.699219 8.273437-.003906 9.976562-3.8125 1.699219-3.808593-.007812-8.277343-3.816406-9.976562-7.84375-3.503907-16.195313-5.285157-24.824219-5.285157-33.613281 0-60.816406 27.199219-60.816406 60.816407 0 54.363281 65.847656 80.96875 103.816406 43.003906 20.984375-20.984375 23.257813-53.078125 7.761719-76.511719zm0 0"/><path d="m92.910156 167.984375c-21.34375 21.347656-6.019531 57.855469 23.96875 57.855469 30.300782 0 45.117188-36.703125 23.964844-57.855469-13.246094-13.246094-34.683594-13.246094-47.933594 0zm23.96875 42.753906c-16.609375 0-25.132812-20.230469-13.289062-32.074219 7.34375-7.339843 19.226562-7.34375 26.574218 0 11.71875 11.71875 3.519532 32.074219-13.285156 32.074219zm0 0"/><path d="m380.917969 365.105469-8.660157-23.800781c-2.457031-6.75-9.953124-10.25-16.710937-7.789063l-23.941406 8.714844c-1.226563-1.574219-2.511719-3.101563-3.847657-4.582031l12.742188-22.066407c1.738281-3.015625 2.203125-6.53125 1.300781-9.894531-.902343-3.359375-3.058593-6.171875-6.074219-7.914062l-21.933593-12.664063c-6.222657-3.589844-14.210938-1.453125-17.804688 4.769531l-12.734375 22.058594c-1.953125-.414062-3.921875-.757812-5.902344-1.035156l-4.421874-25.089844c-1.25-7.074219-8.023438-11.820312-15.101563-10.570312l-24.941406 4.398437c-7.097657 1.25-11.824219 8.003906-10.574219 15.097656l4.421875 25.085938c-1.761719.933593-3.492187 1.9375-5.183594 3l-19.515625-16.375c-5.515625-4.628907-13.730468-3.917969-18.363281 1.605469l-16.277344 19.398437c-4.632812 5.519531-3.917969 13.734375 1.601563 18.367187l19.507812 16.367188c-.75 1.851562-1.433594 3.730469-2.050781 5.632812h-25.464844c-7.1875 0-13.03125 5.847657-13.03125 13.035157v25.328125c0 7.1875 5.84375 13.035156 13.03125 13.035156h25.464844c.617187 1.902344 1.300781 3.78125 2.050781 5.632812l-19.507812 16.371094c-5.515625 4.628906-6.238282 12.84375-1.605469 18.359375l16.28125 19.40625c4.640625 5.527344 12.855469 6.226563 18.363281 1.605469l19.515625-16.375c1.691407 1.0625 3.421875 2.0625 5.183594 3l-4.421875 25.082031c-1.25 7.097657 3.476562 13.847657 10.570312 15.101563 27.117188 4.78125 25.644532 4.597656 27.214844 4.597656 6.203125 0 11.714844-4.457031 12.832032-10.773438l4.421874-25.089843c1.980469-.273438 3.949219-.617188 5.902344-1.03125l12.730469 22.058593c3.59375 6.222657 11.582031 8.363282 17.808594 4.769532l21.933593-12.664063c6.230469-3.597656 8.378907-11.554687 4.769532-17.804687l-12.738282-22.070313c1.335938-1.480469 2.621094-3.011719 3.847657-4.582031l23.941406 8.714844c6.757813 2.457031 14.25-1.039063 16.707031-7.792969l8.664063-23.800781c2.464843-6.769532-1.023438-14.242188-7.789063-16.703125l-23.945312-8.714844c.074218-1.984375.074218-4 0-5.984375l23.945312-8.714844c6.765625-2.464844 10.257813-9.9375 7.789063-16.710937zm-42.25 13.175781c-3.261719 1.1875-5.296875 4.445312-4.925781 7.898438.507812 4.78125.535156 9.628906 0 14.683593-.371094 3.449219 1.664062 6.707031 4.925781 7.894531l27.347656 9.957032-7.246094 19.910156c-42.738281-15.558594-27.867187-12.90625-45.632812 4.164062-2.503907 2.40625-3.042969 6.210938-1.308594 9.222657l14.554687 25.210937-18.347656 10.59375c-22.757812-39.414062-13.03125-27.769531-37.628906-26.144531-3.46875.230469-6.332031 2.800781-6.9375 6.226563l-5.054688 28.667968-20.867187-3.679687c7.898437-44.820313 7.851563-29.664063-12.023437-44.210938-2.804688-2.054687-6.652344-1.929687-9.316407.308594l-22.296875 18.710937-13.621094-16.234374 22.289063-18.699219c2.664063-2.234375 3.457031-6 1.921875-9.121094-2.160156-4.386719-3.84375-9.019531-5.011719-13.773437-.832031-3.378907-3.859375-5.75-7.335937-5.75h-29.09375v-21.191407h29.09375c3.476562 0 6.503906-2.371093 7.335937-5.75 1.167969-4.753906 2.851563-9.386719 5.011719-13.773437 1.535156-3.121094.742188-6.882813-1.921875-9.121094l-22.289063-18.699219 13.621094-16.230469 22.296875 18.707032c2.664063 2.234375 6.511719 2.363281 9.316407.308594 3.957031-2.894532 8.226562-5.363282 12.691406-7.339844 3.175781-1.40625 4.984375-4.800782 4.382812-8.21875l-5.050781-28.652344 20.867187-3.679688 5.054688 28.667969c.605469 3.425781 3.46875 5.996094 6.9375 6.226563 4.90625.324218 9.765625 1.171875 14.441406 2.527344 3.335938.964843 6.902344-.46875 8.640625-3.480469l14.546875-25.191407 18.347656 10.59375-14.554687 25.210938c-1.738281 3.007812-1.195313 6.816406 1.308594 9.222656 3.535156 3.398438 6.710937 7.175782 9.433593 11.230469 1.9375 2.882813 5.585938 4.074219 8.855469 2.886719l27.34375-9.953125 7.246094 19.910156zm0 0"/><path d="m264.832031 332.703125c-16.246093 0-31.515625 6.328125-43.003906 17.8125-38.238281 38.238281-10.917969 103.789063 43.003906 103.789063 15.574219 0 31.144531-5.925782 43-17.785157 38.300781-38.296875 10.808594-103.816406-43-103.816406zm32.320313 93.140625c-17.820313 17.820312-46.820313 17.820312-64.640625 0-28.785157-28.785156-8.128907-78.03125 32.320312-78.03125 40.402344-.003906 61.140625 49.210938 32.320313 78.03125zm0 0"/><path d="m281.238281 384.363281c2.03125 3.644531 6.632813 4.949219 10.273438 2.917969s4.949219-6.632812 2.914062-10.273438c-5.980469-10.726562-17.328125-17.386718-29.613281-17.386718-18.511719 0-33.886719 15.019531-33.886719 33.90625 0 32.757812 41.9375 46.195312 61.152344 20.164062 2.480469-3.355468 1.765625-8.085937-1.585937-10.5625-3.355469-2.476562-8.085938-1.765625-10.5625 1.589844-10.714844 14.511719-33.902344 6.808594-33.902344-11.191406 0-19.359375 25.847656-25.941406 35.210937-9.164063zm0 0"/></svg>