<svg height="512pt" viewBox="0 0 512 512" width="512pt" xmlns="http://www.w3.org/2000/svg"><path d="m483.398438 408.765625c7.28125-9.695313 11.601562-21.734375 11.601562-34.765625 0-26.796875-18.269531-49.394531-43-56.023438v-67.976562h-81v-33h71v-217h-372v217h71v33h-81v67.976562c-24.730469 6.628907-43 29.226563-43 56.023438 0 13.03125 4.320312 25.070312 11.601562 34.765625-17.03125 9.355469-28.601562 27.46875-28.601562 48.234375v55h150v-55c0-20.765625-11.570312-38.878906-28.601562-48.234375 7.28125-9.695313 11.601562-21.734375 11.601562-34.765625 0-26.796875-18.269531-49.394531-43-56.023438v-37.976562h81v-63h70v100.976562c-24.730469 6.628907-43 29.230469-43 56.023438 0 13.03125 4.320312 25.070312 11.601562 34.765625-17.03125 9.355469-28.601562 27.46875-28.601562 48.234375v55h150v-55c0-20.765625-11.570312-38.878906-28.601562-48.234375 7.28125-9.695313 11.601562-21.734375 11.601562-34.765625 0-26.796875-18.269531-49.394531-43-56.023438v-100.976562h70v63h81v37.976562c-24.730469 6.628907-43 29.230469-43 56.023438 0 13.03125 4.320312 25.070312 11.601562 34.765625-17.03125 9.355469-28.601562 27.46875-28.601562 48.234375v55h150v-55c0-20.765625-11.570312-38.878906-28.601562-48.234375zm-363.398438 48.234375v25h-90v-25c0-13.785156 11.214844-25 25-25h40c13.785156 0 25 11.214844 25 25zm-17-83c0 15.4375-12.5625 28-28 28s-28-12.5625-28-28 12.5625-28 28-28 28 12.5625 28 28zm276.640625-344-123.640625 83.875-123.640625-83.875zm-78.640625 427v25h-90v-25c0-13.785156 11.214844-25 25-25h40c13.785156 0 25 11.214844 25 25zm-17-83c0 15.4375-12.5625 28-28 28s-28-12.5625-28-28 12.5625-28 28-28 28 12.5625 28 28zm-184-187v-142.699219l156 105.824219 156-105.824219v142.699219zm337 159c15.4375 0 28 12.5625 28 28s-12.5625 28-28 28-28-12.5625-28-28 12.5625-28 28-28zm45 136h-90v-25c0-13.785156 11.214844-25 25-25h40c13.785156 0 25 11.214844 25 25zm0 0"/></svg>