<svg height="496pt" viewBox="0 0 496 495" width="496pt" xmlns="http://www.w3.org/2000/svg"><path d="m472 304.5h-40.671875c5.265625-12.070312 9.328125-24.648438 12.121094-37.550781l28.550781-13.359375v-58.179688l-28.542969-13.351562c-5.074219-23.488282-14.21875-45.574219-27.234375-65.765625l10.746094-29.617188-41.144531-41.144531-29.609375 10.746094c-20.175782-13.007813-42.269532-22.160156-65.765625-27.226563l-13.351563-28.550781h-58.1875l-13.351562 28.550781c-23.496094 5.074219-45.582032 14.21875-65.765625 27.226563l-29.609375-10.746094-41.144532 41.144531 10.746094 29.617188c-13.015625 20.183593-22.167968 42.277343-27.234375 65.765625l-28.550781 13.351562v45.089844c-13.230469 0-24 10.769531-24 24v96c0 13.230469 10.769531 24 24 24h61.703125l74.296875 46.433594v-46.433594h64v40c0 13.230469 10.769531 24 24 24h61.703125l74.296875 46.433594v-46.433594h88c13.230469 0 24-10.769531 24-24v-96c0-13.230469-10.769531-24-24-24zm-432-98.910156 26.65625-12.464844.777344-4c4.71875-24.21875 14.09375-46.863281 27.871094-67.320312l2.269531-3.367188-10.023438-27.648438 26.738281-26.746093 27.640626 10.023437 3.375-2.269531c20.449218-13.777344 43.101562-23.152344 67.328124-27.871094l3.992188-.777343 12.472656-26.648438h37.8125l12.472656 26.65625 3.992188.777344c24.226562 4.71875 46.882812 14.09375 67.328125 27.871094l3.375 2.269531 27.640625-10.023438 26.738281 26.746094-10.023437 27.648437 2.269531 3.367188c13.785156 20.457031 23.160156 43.101562 27.871094 67.320312l.777343 4 26.648438 12.457032v37.820312l-26.648438 12.464844-.785156 3.992188c-3.023437 15.503906-8.109375 30.464843-14.957031 44.632812h-27.105469c14.054688-24.246094 21.496094-51.601562 21.496094-80 0-88.222656-71.777344-160-160-160s-160 71.777344-160 160c0 5.351562.359375 10.695312.886719 16h-48.886719zm208 34.910156h-143.015625c-.585937-5.296875-.984375-10.640625-.984375-16h40.265625c12.839844 0 24.230469-7.710938 29.007813-19.640625l4.3125-10.773437c2.324218-5.824219 7.886718-9.585938 14.148437-9.585938h9.027344c17.222656 0 31.238281-14.015625 31.238281-31.246094 0-6.570312 4.183594-12.386718 10.433594-14.464844l16.199218-5.410156c12.78125-4.253906 21.367188-16.167968 21.367188-29.632812v-19.535156c17.609375 4.015624 34.03125 11.160156 48.542969 20.984374l-21.207031 14.136719c-12.113282 8.070313-19.335938 21.574219-19.335938 36.128907v10.160156c0 14.742187 10.496094 27.535156 24.945312 30.429687 8.726563 1.746094 15.054688 9.464844 15.054688 18.351563 0 7.699218-4.617188 14.523437-11.769531 17.386718l-11.207031 4.488282c-10.34375 4.132812-17.023438 14.007812-17.023438 25.144531 0 14.925781 12.152344 27.078125 27.078125 27.078125h19.035156c14.078125 0 26.742188-7.824219 33.046875-20.425781 3.566406-7.132813 10.742188-11.574219 18.726563-11.574219h2.511719c-3.863282 17.070312-10.886719 33.265625-20.765626 48h-95.632812v-40c0-13.230469-10.769531-24-24-24zm-143.054688-32c7.992188-71.894531 69.070313-128 143.054688-128 5.414062 0 10.734375.359375 16 .945312v22.300782c0 6.570312-4.183594 12.386718-10.433594 14.464844l-16.199218 5.410156c-12.78125 4.253906-21.367188 16.167968-21.367188 29.632812 0 8.40625-6.832031 15.246094-15.238281 15.246094h-9.027344c-12.839844 0-24.230469 7.710938-29.007813 19.640625l-4.3125 10.773437c-2.324218 5.824219-7.886718 9.585938-14.148437 9.585938zm286.070313 32h-5.128906c-14.078125 0-26.742188 7.824219-33.046875 20.425781-3.566406 7.132813-10.742188 11.574219-18.726563 11.574219h-19.035156c-6.109375 0-11.078125-4.976562-11.078125-11.078125 0-4.554687 2.734375-8.59375 6.960938-10.289063l11.207031-4.488281c13.265625-5.304687 21.832031-17.960937 21.832031-32.242187 0-16.496094-11.742188-30.8125-27.910156-34.046875-7.011719-1.398438-12.089844-7.597657-12.089844-14.734375v-10.160156c0-9.183594 4.558594-17.722657 12.207031-22.816407l25.65625-17.105469c30.640625 26.425782 50.136719 65.425782 50.136719 108.960938 0 5.382812-.398438 10.710938-.984375 16zm-247.015625 128v33.566406l-53.703125-33.566406h-66.296875c-4.414062 0-8-3.59375-8-8v-96c0-4.40625 3.585938-8 8-8h224c4.414062 0 8 3.59375 8 8v96c0 4.40625-3.585938 8-8 8zm336 56c0 4.40625-3.585938 8-8 8h-104v33.566406l-53.703125-33.566406h-66.296875c-4.414062 0-8-3.59375-8-8v-40h8c13.230469 0 24-10.769531 24-24v-8h80v-16h-80v-16h200c4.414062 0 8 3.59375 8 8zm0 0"/><path d="m368 416.5h96v-80h-96zm16-64h64v48h-64zm0 0"/><path d="m288 368.5h64v16h-64zm0 0"/><path d="m256 400.5h96v16h-96zm0 0"/><path d="m144 352.5h96v-80h-96zm16-64h64v48h-64zm0 0"/><path d="m32 272.5h96v16h-96zm0 0"/><path d="m32 304.5h32v16h-32zm0 0"/><path d="m80 304.5h48v16h-48zm0 0"/><path d="m32 336.5h96v16h-96zm0 0"/><path d="m240 32.5h16v16h-16zm0 0"/><path d="m106.574219 94.398438 11.316406-11.316407 11.3125 11.316407-11.3125 11.3125zm0 0"/><path d="m56 216.5h16v16h-16zm0 0"/><path d="m366.789062 94.382812 11.316407-11.3125 11.3125 11.316407-11.316407 11.3125zm0 0"/><path d="m424 216.5h16v16h-16zm0 0"/></svg>